<svg xmlns="http://www.w3.org/2000/svg" xmlns:xlink="http://www.w3.org/1999/xlink" xmlns:sketch="http://www.bohemiancoding.com/sketch/ns" width="282px" height="115px" viewBox="0 0 282 115" version="1.1">
    <title>D-Blok Studios</title>
    <defs/>
    <g id="Page-1" stroke="none" stroke-width="1" fill="none" fill-rule="evenodd" sketch:type="MSPage">
        <path d="M104.690201 158.6 L90.8434013 158.6 L90.8434013 142.2 L90.4238013 142.2 C88.1859234 145.6 85.5 148.5 82.5 150.8 C79.3743191 153.2 76.2 155.2 72.8 156.7 C69.4437842 158.3 66 159.4 62.4 160.1 C58.848883 160.8 55.5 161.1 52.2 161.1 C44.5474955 161.1 37.5 159.8 31.2 157.2 C24.7913352 154.7 19.3 151.1 14.7 146.4 C10.0703771 141.8 6.5 136.4 3.9 130.1 C1.29375375 123.8 0 116.9 0 109.5 C0 102.1 1.3 95.2 3.9 89 C6.46884636 82.7 10.1 77.2 14.7 72.6 C19.3016234 68 24.8 64.4 31.2 61.8 C37.5192657 59.2 44.5 57.9 52.2 57.9 C55.4571502 57.9 58.8 58.3 62.4 59 C65.9821188 59.7 69.4 60.8 72.8 62.3 C76.1574179 63.8 79.4 65.8 82.5 68.2 C85.5284833 70.6 88.2 73.4 90.4 76.8 L90.8434013 76.8 L90.8434013 0 L104.690201 0 L104.690201 158.6 Z M15.1056002 109.5 C15.1056002 115 16 120.1 17.7 124.8 C19.4764424 129.6 22 133.7 25.2 137.2 C28.3929498 140.7 32.3 143.5 36.8 145.5 C41.36559 147.5 46.5 148.5 52.2 148.5 C57.8348955 148.5 63 147.5 67.9 145.5 C72.6957252 143.5 76.9 140.7 80.4 137.2 C83.8500853 133.7 86.6 129.6 88.5 124.8 C90.4937444 120.1 91.5 115 91.5 109.5 C91.4728013 104.1 90.5 99 88.5 94.2 C86.5774581 89.4 83.9 85.3 80.4 81.8 C76.8567169 78.3 72.7 75.6 67.9 73.5 C63.0448768 71.5 57.8 70.5 52.2 70.5 C46.5056387 70.5 41.4 71.5 36.8 73.5 C32.2742111 75.6 28.4 78.3 25.2 81.8 C21.9590509 85.3 19.5 89.4 17.7 94.2 C15.9797582 99 15.1 104.1 15.1 109.5 Z M167.686803 115.2 L113.768202 115.2 L113.768202 101.3 L167.686803 101.3 L167.686803 115.2 Z M176.764803 0 L190.611603 0 L190.611603 76.8 L191.031203 76.8 C193.269081 73.4 195.9 70.6 199 68.2 C202.080685 65.8 205.3 63.8 208.7 62.3 C212.01122 60.8 215.5 59.7 219 59 C222.606121 58.3 226 57.9 229.2 57.9 C236.907509 57.9 243.9 59.2 250.3 61.8 C256.663669 64.4 262.2 68 266.8 72.6 C271.384627 77.2 275 82.7 277.6 89 C280.161251 95.2 281.5 102.1 281.5 109.5 C281.455004 116.9 280.2 123.8 277.6 130.1 C274.986158 136.4 271.4 141.8 266.8 146.4 C262.153381 151.1 256.7 154.7 250.3 157.2 C243.935739 159.8 236.9 161.1 229.2 161.1 C225.997854 161.1 222.6 160.8 219 160.1 C215.472886 159.4 212 158.3 208.7 156.7 C205.297587 155.2 202.1 153.2 199 150.8 C195.926521 148.5 193.3 145.6 191 142.2 L190.611603 142.2 L190.611603 158.6 L176.764803 158.6 L176.764803 0 Z M266.349404 109.5 C266.349404 104.1 265.5 99 263.7 94.2 C261.978562 89.4 259.5 85.3 256.3 81.8 C253.062055 78.3 249.2 75.6 244.6 73.5 C240.089414 71.5 234.9 70.5 229.2 70.5 C223.480242 70.5 218.2 71.5 213.5 73.5 C208.724313 75.6 204.6 78.3 201.1 81.8 C197.604919 85.3 194.9 89.4 192.9 94.2 C190.96126 99 190 104.1 190 109.5 C189.982203 115 191 120.1 192.9 124.8 C194.877546 129.6 197.6 133.7 201.1 137.2 C204.598287 140.7 208.7 143.5 213.5 145.5 C218.235294 147.5 223.5 148.5 229.2 148.5 C234.949366 148.5 240.1 147.5 244.6 145.5 C249.180793 143.5 253.1 140.7 256.3 137.2 C259.495954 133.7 262 129.6 263.7 124.8 C265.475246 120.1 266.3 115 266.3 109.5 Z" fill="#fff" sketch:type="MSShapeGroup"/>
    </g>
</svg>
