<?xml version="1.0" encoding="UTF-8" standalone="no"?>
<svg width="26px" height="31px" viewBox="0 0 26 31" version="1.1" xmlns="http://www.w3.org/2000/svg" xmlns:xlink="http://www.w3.org/1999/xlink" xmlns:sketch="http://www.bohemiancoding.com/sketch/ns">
    <!-- Generator: Sketch 3.0.4 (8053) - http://www.bohemiancoding.com/sketch -->
    <title>amazon--alt</title>
    <desc>Created with Sketch.</desc>
    <defs></defs>
    <g id="Page-1" stroke="none" stroke-width="1" fill="none" fill-rule="evenodd" sketch:type="MSPage">
        <path d="M15.2394214,11.6078262 C12.3711956,11.9406153 8.61903929,12.1530414 5.93191884,13.3567896 C2.83399549,14.7167229 0.654862167,17.499995 0.654862167,21.5866011 C0.654862167,26.8204757 3.89891398,29.4337113 8.06210793,29.4337113 C11.5845667,29.4337113 13.5059506,28.5905741 16.2208882,25.7719574 C17.1258283,27.0966655 17.4184374,27.7412278 19.0609447,29.1291025 C19.4301979,29.3270803 19.9035602,29.3058257 20.2305593,29.0085008 L20.2445266,29.0227103 C21.2331531,28.1301384 23.0293008,26.5371214 24.0382327,25.6797747 C24.442228,25.3397018 24.3726262,24.7949643 24.0522,24.3413348 C23.1473772,23.0663003 22.1865679,22.032708 22.1865679,19.6741688 L22.1865679,11.8272974 C22.1865679,8.50561644 22.4165002,5.45308019 20.0074346,3.16558853 C18.1071778,1.31035244 14.9606623,0.658386863 12.5519489,0.658386863 C7.84590823,0.658386863 2.59009594,2.44329188 1.48292344,8.36399901 C1.37165454,8.99411298 1.81708225,9.326902 2.22096019,9.41920409 L7.02453718,9.94340352 C7.46996489,9.92191014 7.79719874,9.4758033 7.88088516,9.0226514 C8.29157069,6.98293054 9.97633206,5.99853417 11.862739,5.99853417 C12.8791827,5.99853417 14.0344778,6.38099676 14.6405882,7.30891333 C15.329446,8.34286386 15.2391867,9.75939638 15.2391867,10.9563383 L15.2394214,11.6078262 L15.2394214,11.6078262 Z M14.3135891,22.0752171 C13.5269602,23.4917496 12.2804668,24.3628282 10.8885492,24.3628282 C8.98805766,24.3628282 7.88123728,22.889577 7.88123728,20.7152838 C7.88123728,16.4238935 11.6610934,15.6447589 15.2394214,15.6447589 L15.2394214,16.7353086 C15.2394214,18.6971757 15.2883657,20.3331794 14.3135891,22.0752171 L14.3135891,22.0752171 Z" id="amazon--alt" fill="#000000" sketch:type="MSShapeGroup"></path>
    </g>
</svg>