<?xml version="1.0" encoding="UTF-8" standalone="no"?>
<svg width="49px" height="58px" viewBox="0 0 49 58" version="1.1" xmlns="http://www.w3.org/2000/svg" xmlns:xlink="http://www.w3.org/1999/xlink" xmlns:sketch="http://www.bohemiancoding.com/sketch/ns">
    <!-- Generator: Sketch 3.0.4 (8053) - http://www.bohemiancoding.com/sketch -->
    <title>apple</title>
    <desc>Created with Sketch.</desc>
    <defs></defs>
    <g id="Page-1" stroke="none" stroke-width="1" fill="none" fill-rule="evenodd" sketch:type="MSPage">
        <path d="M47.5928037,41.2410829 C45.6142405,40.6374535 43.836887,39.2289847 42.2942784,37.0156766 C40.7516697,34.8023686 39.9803654,32.2872458 39.9803654,29.5373782 C39.9803654,26.9887205 40.7181348,24.6748075 42.1601385,22.5956393 C42.9649778,21.4219154 44.2393067,20.1140515 45.9831251,18.6385128 C44.8429361,17.230044 43.6692122,16.089855 42.4954882,15.2850157 C40.41632,13.843012 38.0353371,13.1052427 35.3525395,13.1052427 C33.7093259,13.1052427 31.7642976,13.5076623 29.5509896,14.2454317 C27.3376815,15.016736 25.7280029,15.3856207 24.7554888,15.3856207 C23.9841845,15.3856207 22.4415758,15.050271 20.1276629,14.3795715 C17.7802149,13.7088721 15.8351866,13.3735224 14.1919731,13.3735224 C10.3354515,13.3735224 7.18316425,14.983201 4.66804146,18.2025582 C2.15291867,21.4554503 0.878589789,25.6137867 0.878589789,30.7446372 C0.878589789,36.2443723 2.55533832,41.8447124 5.80823045,47.6127273 C9.12819254,53.3807422 12.4481546,56.2982847 15.9022566,56.2982847 C17.0089106,56.2982847 18.4844493,55.9294 20.3288727,55.1580957 C22.1397611,54.4203263 23.7494397,54.0514417 25.0908385,54.0514417 C26.4657723,54.0514417 28.1760558,54.3867914 30.154619,55.1245607 C32.1667173,55.8287951 33.7093259,56.1976798 34.8495149,56.1976798 C37.6999874,56.1976798 40.5839949,54.0179067 43.4680023,49.6248256 C45.4130306,46.7072831 46.7544295,43.8903456 47.5928037,41.2410829 Z M34.9836548,1.90456251 C34.9836548,1.66981772 34.9501198,1.46860789 34.9501198,1.2338631 C34.9165849,1.03265328 34.8495149,0.797908485 34.782445,0.49609375 C30.8923884,1.40153795 28.0754509,3.04475151 26.3987023,5.45926939 C24.7219538,7.87378726 23.8500446,10.7577947 23.7829746,14.0777568 C25.3591183,13.9436169 26.4993073,13.7424071 27.2706116,13.5076623 C28.4778705,13.1052427 29.6851295,12.3004034 30.8923884,11.0931444 C32.3008572,9.68467567 33.3404412,8.14206703 34.0111407,6.4653185 C34.6483051,4.82210495 34.9836548,3.2794963 34.9836548,1.90456251 Z" id="apple" fill="#000000" sketch:type="MSShapeGroup"></path>
    </g>
</svg>