<?xml version="1.0" encoding="UTF-8" standalone="no"?>
<svg width="66px" height="49px" viewBox="0 0 66 49" version="1.1" xmlns="http://www.w3.org/2000/svg" xmlns:xlink="http://www.w3.org/1999/xlink" xmlns:sketch="http://www.bohemiancoding.com/sketch/ns">
    <!-- Generator: Sketch 3.0.4 (8053) - http://www.bohemiancoding.com/sketch -->
    <title>cloud</title>
    <desc>Created with Sketch.</desc>
    <defs></defs>
    <g id="Page-1" stroke="none" stroke-width="1" fill="none" fill-rule="evenodd" sketch:type="MSPage">
        <path d="M64.9979965,34.8293953 C64.9979965,28.7260306 60.7390553,23.6287151 55.0381103,22.2873163 C55.9100195,20.9459175 56.4130441,19.3697739 56.4130441,17.6594904 C56.4130441,12.9310595 52.5565225,9.07453791 47.8280916,9.07453791 C45.6818535,9.07453791 43.7368252,9.84584223 42.2612865,11.1537061 C39.6790938,4.88266659 33.5421942,0.489585457 26.3657105,0.489585457 C16.8753138,0.489585457 9.19580558,8.1690937 9.19580558,17.6594904 C9.19580558,18.1289799 9.22934055,18.6320045 9.26287552,19.1014941 C4.16556,21.482477 0.610853129,26.6803974 0.610853129,32.6831571 C0.610853129,40.9662949 7.3513822,47.7068239 15.6345199,47.7068239 L52.1205678,47.7068239 C59.2299816,47.7068239 64.9979965,41.938809 64.9979965,34.8293953 L64.9979965,34.8293953 Z" id="cloud" fill="#000000" sketch:type="MSShapeGroup"></path>
    </g>
</svg>