<?xml version="1.0" encoding="UTF-8" standalone="no"?>
<svg width="58px" height="49px" viewBox="0 0 58 49" version="1.1" xmlns="http://www.w3.org/2000/svg" xmlns:xlink="http://www.w3.org/1999/xlink" xmlns:sketch="http://www.bohemiancoding.com/sketch/ns">
    <!-- Generator: Sketch 3.0.4 (8053) - http://www.bohemiancoding.com/sketch -->
    <title>github</title>
    <desc>Created with Sketch.</desc>
    <defs></defs>
    <g id="Page-1" stroke="none" stroke-width="1" fill="none" fill-rule="evenodd" sketch:type="MSPage">
        <path d="M56.2078031,26.6098038 C56.2078031,21.7136981 54.8664043,17.0523372 51.6470471,13.2628856 C52.2506766,11.4519972 52.5524913,9.54050384 52.5524913,7.62901052 C52.5524913,5.11388773 51.9823968,2.59876494 50.8422078,0.318386949 C45.6107524,0.318386949 42.2237204,2.56522997 38.2330589,5.68398223 C35.1813766,4.94621288 31.9955544,4.61086317 28.8432672,4.61086317 C25.3556302,4.61086317 21.8679933,4.97974785 18.4809613,5.78458714 C14.4567648,2.63229991 11.0697328,0.318386949 5.77120747,0.318386949 C4.63101847,2.59876494 4.06092397,5.11388773 4.06092397,7.62901052 C4.06092397,9.54050384 4.36273871,11.4855321 4.96636818,13.3299555 C1.74701101,17.0858722 0.405612186,21.7136981 0.405612186,26.6098038 C0.405612186,30.3321856 0.774496862,34.322847 2.48478036,37.7098791 C7.07907132,46.7643211 19.990035,47.5356254 28.8432672,47.5356254 C37.5623595,47.5356254 49.7355538,46.6637162 54.1621699,37.7098791 C55.8389184,34.2893121 56.2078031,30.3321856 56.2078031,26.6098038 Z M48.6959697,32.5119586 C48.6959697,42.7736596 39.306178,44.3498032 31.1236452,44.3498032 L25.4897701,44.3498032 C17.3072373,44.3498032 7.91744558,42.7736596 7.91744558,32.5119586 C7.91744558,27.3811082 11.0361978,22.8538871 16.502398,22.8538871 C18.7157061,22.8538871 20.8619442,23.2563068 23.0417173,23.5581215 C24.7855357,23.8264013 26.5293542,23.9270062 28.3067077,23.9270062 C30.0840611,23.9270062 31.8278796,23.8264013 33.571698,23.5581215 C35.7850061,23.2563068 37.8977092,22.8538871 40.1110173,22.8538871 C45.5772175,22.8538871 48.6959697,27.3811082 48.6959697,32.5119586 Z M21.8679933,32.5119586 C21.8679933,30.0639058 20.5936644,26.0732443 17.5755171,26.0732443 C14.5573697,26.0732443 13.2830409,30.0639058 13.2830409,32.5119586 C13.2830409,34.9600115 14.5573697,38.950673 17.5755171,38.950673 C20.5936644,38.950673 21.8679933,34.9600115 21.8679933,32.5119586 Z M43.3303744,32.5119586 C43.3303744,30.0639058 42.0560456,26.0732443 39.0378982,26.0732443 C36.0197509,26.0732443 34.745422,30.0639058 34.745422,32.5119586 C34.745422,34.9600115 36.0197509,38.950673 39.0378982,38.950673 C42.0560456,38.950673 43.3303744,34.9600115 43.3303744,32.5119586 Z" id="github" fill="#000000" sketch:type="MSShapeGroup"></path>
    </g>
</svg>