<?xml version="1.0" encoding="UTF-8" standalone="no"?>
<svg width="66px" height="62px" viewBox="0 0 66 62" version="1.1" xmlns="http://www.w3.org/2000/svg" xmlns:xlink="http://www.w3.org/1999/xlink" xmlns:sketch="http://www.bohemiancoding.com/sketch/ns">
    <!-- Generator: Sketch 3.0.4 (8053) - http://www.bohemiancoding.com/sketch -->
    <title>group</title>
    <desc>Created with Sketch.</desc>
    <defs></defs>
    <g id="Page-1" stroke="none" stroke-width="1" fill="none" fill-rule="evenodd" sketch:type="MSPage">
        <path d="M20.2532076,30.2195361 C18.5093891,27.7044134 17.536875,24.686266 17.536875,21.6345837 C17.536875,20.8968143 17.6039449,20.159045 17.7045499,19.4212756 C16.2625461,19.9243002 14.7870074,20.19258 13.2443988,20.19258 C8.71717775,20.19258 5.22954082,17.3421075 4.52530644,17.3421075 C0.266365185,17.3421075 0.366970097,26.4636194 0.366970097,29.1799521 C0.366970097,32.9023338 3.51925732,34.5120124 6.87275438,34.5120124 L11.3664404,34.5120124 C13.6132834,31.8292147 16.7655707,30.3201411 20.2532076,30.2195361 Z M56.169161,51.5813124 C56.169161,44.002409 54.3918076,32.3657743 44.5660612,32.3657743 C43.4258722,32.3657743 39.2675359,37.0271352 32.5605418,37.0271352 C25.8535477,37.0271352 21.6952113,32.3657743 20.5550223,32.3657743 C10.729276,32.3657743 8.95192255,44.002409 8.95192255,51.5813124 C8.95192255,57.0139776 12.5401644,60.2668697 17.9057597,60.2668697 L47.2153239,60.2668697 C52.5809192,60.2668697 56.169161,57.0139776 56.169161,51.5813124 Z M21.8293512,8.75715502 C21.8293512,4.02872417 17.9728296,0.172202564 13.2443988,0.172202564 C8.51596793,0.172202564 4.65944632,4.02872417 4.65944632,8.75715502 C4.65944632,13.4855859 8.51596793,17.3421075 13.2443988,17.3421075 C17.9728296,17.3421075 21.8293512,13.4855859 21.8293512,8.75715502 Z M45.4379705,21.6345837 C45.4379705,14.5251699 39.6699555,8.75715502 32.5605418,8.75715502 C25.451128,8.75715502 19.6831131,14.5251699 19.6831131,21.6345837 C19.6831131,28.7439974 25.451128,34.5120124 32.5605418,34.5120124 C39.6699555,34.5120124 45.4379705,28.7439974 45.4379705,21.6345837 Z M64.7541135,29.1799521 C64.7541135,26.4636194 64.8547184,17.3421075 60.5957771,17.3421075 C59.8915428,17.3421075 56.4039058,20.19258 51.8766848,20.19258 C50.3340762,20.19258 48.8585375,19.9243002 47.4165337,19.4212756 C47.5171386,20.159045 47.5842086,20.8968143 47.5842086,21.6345837 C47.5842086,24.686266 46.6116944,27.7044134 44.867876,30.2195361 C48.3555129,30.3201411 51.5078001,31.8292147 53.7546432,34.5120124 L58.2483292,34.5120124 C61.6018263,34.5120124 64.7541135,32.9023338 64.7541135,29.1799521 Z M60.4616373,8.75715502 C60.4616373,4.02872417 56.6051156,0.172202564 51.8766848,0.172202564 C47.148254,0.172202564 43.2917324,4.02872417 43.2917324,8.75715502 C43.2917324,13.4855859 47.148254,17.3421075 51.8766848,17.3421075 C56.6051156,17.3421075 60.4616373,13.4855859 60.4616373,8.75715502 Z" id="group" fill="#262626" sketch:type="MSShapeGroup"></path>
    </g>
</svg>