<?xml version="1.0" encoding="UTF-8" standalone="no"?>
<svg width="58px" height="49px" viewBox="0 0 58 49" version="1.1" xmlns="http://www.w3.org/2000/svg" xmlns:xlink="http://www.w3.org/1999/xlink" xmlns:sketch="http://www.bohemiancoding.com/sketch/ns">
    <!-- Generator: Sketch 3.0.4 (8053) - http://www.bohemiancoding.com/sketch -->
    <title>headphones</title>
    <desc>Created with Sketch.</desc>
    <defs></defs>
    <g id="Page-1" stroke="none" stroke-width="1" fill="none" fill-rule="evenodd" sketch:type="MSPage">
        <path d="M56.2078031,26.122785 C56.2078031,12.3399121 43.4309794,0.703277324 28.3067077,0.703277324 C13.182436,0.703277324 0.405612186,12.3399121 0.405612186,26.122785 C0.405612186,29.7780968 1.0763116,33.3328036 2.41771042,36.6527657 L3.08840983,38.2959793 L9.29237937,39.4026333 C10.2648935,43.0579451 13.5848556,45.7742777 17.5755171,45.7742777 L17.5755171,46.8473967 C17.5755171,47.4510262 18.0450067,47.9205158 18.6486361,47.9205158 L20.7948743,47.9205158 C21.3985037,47.9205158 21.8679933,47.4510262 21.8679933,46.8473967 L21.8679933,27.5312537 C21.8679933,26.9276243 21.3985037,26.4581347 20.7948743,26.4581347 L18.6486361,26.4581347 C18.0450067,26.4581347 17.5755171,26.9276243 17.5755171,27.5312537 L17.5755171,28.6043728 C14.3561599,28.6043728 11.5727574,30.3817262 10.0972187,32.9974539 L7.81684067,32.5950343 C7.17967623,30.5158661 6.84432652,28.369628 6.84432652,26.122785 C6.84432652,15.9952239 16.8712827,7.14199166 28.3067077,7.14199166 C39.7421326,7.14199166 49.7690888,15.9952239 49.7690888,26.122785 C49.7690888,28.369628 49.4337391,30.5158661 48.7965746,32.5950343 L46.5161966,32.9974539 C45.0406579,30.3817262 42.2572554,28.6043728 39.0378982,28.6043728 L39.0378982,27.5312537 C39.0378982,26.9276243 38.5684086,26.4581347 37.9647792,26.4581347 L35.818541,26.4581347 C35.2149116,26.4581347 34.745422,26.9276243 34.745422,27.5312537 L34.745422,46.8473967 C34.745422,47.4510262 35.2149116,47.9205158 35.818541,47.9205158 L37.9647792,47.9205158 C38.5684086,47.9205158 39.0378982,47.4510262 39.0378982,46.8473967 L39.0378982,45.7742777 C43.0285597,45.7742777 46.3485218,43.0579451 47.3210359,39.4026333 L53.5250055,38.2959793 L54.1957049,36.6527657 C55.5371037,33.3328036 56.2078031,29.7780968 56.2078031,26.122785 L56.2078031,26.122785 Z" id="headphones" fill="#000000" sketch:type="MSShapeGroup"></path>
    </g>
</svg>