<?xml version="1.0" encoding="UTF-8" standalone="no"?>
<svg width="62px" height="53px" viewBox="0 0 62 53" version="1.1" xmlns="http://www.w3.org/2000/svg" xmlns:xlink="http://www.w3.org/1999/xlink" xmlns:sketch="http://www.bohemiancoding.com/sketch/ns">
    <!-- Generator: Sketch 3.0.4 (8053) - http://www.bohemiancoding.com/sketch -->
    <title>heart--outline</title>
    <desc>Created with Sketch.</desc>
    <defs></defs>
    <g id="Page-1" stroke="none" stroke-width="1" fill="none" fill-rule="evenodd" sketch:type="MSPage">
        <path d="M60.4926804,15.7202769 C60.4926804,5.89453056 54.4899206,0.0259107229 44.4629645,0.0259107229 C38.5943446,0.0259107229 33.0946095,4.65373665 30.4453468,7.26946435 C27.7960841,4.65373665 22.296349,0.0259107229 16.4277291,0.0259107229 C6.40077293,0.0259107229 0.398013208,5.89453056 0.398013208,15.7202769 C0.398013208,23.7686698 7.77570672,30.5091989 8.04398648,30.7439437 L28.9698081,50.931996 C29.3722277,51.3344156 29.9087873,51.5356254 30.4453468,51.5356254 C30.9819063,51.5356254 31.5184658,51.3344156 31.9208855,50.931996 L52.8131721,30.8110137 C53.1149869,30.5091989 60.4926804,23.7686698 60.4926804,15.7202769 Z M56.2002041,15.7202769 C56.2002041,21.8571765 49.9962346,27.5581215 49.8956297,27.6587264 L30.4453468,46.4047749 L10.9615289,27.6251915 C10.894459,27.5581215 4.69048943,21.8571765 4.69048943,15.7202769 C4.69048943,6.29695021 11.0621338,4.31838695 16.4277291,4.31838695 C21.4244397,4.31838695 27.0583148,9.7175172 28.8021332,11.7966854 C29.6069725,12.7691995 31.2837211,12.7691995 32.0885603,11.7966854 C33.8323788,9.7175172 39.4662539,4.31838695 44.4629645,4.31838695 C49.8285597,4.31838695 56.2002041,6.29695021 56.2002041,15.7202769 Z" id="heart--outline" fill="#000000" sketch:type="MSShapeGroup"></path>
    </g>
</svg>