<?xml version="1.0" encoding="UTF-8" standalone="no"?>
<svg width="51px" height="54px" viewBox="0 0 51 54" version="1.1" xmlns="http://www.w3.org/2000/svg" xmlns:xlink="http://www.w3.org/1999/xlink" xmlns:sketch="http://www.bohemiancoding.com/sketch/ns">
    <!-- Generator: Sketch 3.0.4 (8053) - http://www.bohemiancoding.com/sketch -->
    <title>lab</title>
    <desc>Created with Sketch.</desc>
    <defs></defs>
    <g id="Page-1" stroke="none" stroke-width="1" fill="none" fill-rule="evenodd" sketch:type="MSPage">
        <path d="M48.6135122,44.8351441 L31.745422,18.2419125 L31.745422,4.86145925 L33.8916601,4.86145925 C35.0653841,4.86145925 36.0378982,3.8889451 36.0378982,2.71522113 C36.0378982,1.54149717 35.0653841,0.568983021 33.8916601,0.568983021 L16.7217552,0.568983021 C15.5480312,0.568983021 14.5755171,1.54149717 14.5755171,2.71522113 C14.5755171,3.8889451 15.5480312,4.86145925 16.7217552,4.86145925 L18.8679933,4.86145925 L18.8679933,18.2419125 L1.99990315,44.8351441 C-0.515219642,48.8258056 1.26213379,52.0786977 5.99056464,52.0786977 L44.6228507,52.0786977 C49.3512815,52.0786977 51.1286349,48.8258056 48.6135122,44.8351441 Z M22.4897701,20.5222905 L23.1604695,19.4827064 L23.1604695,18.2419125 L23.1604695,4.86145925 L27.4529458,4.86145925 L27.4529458,18.2419125 L27.4529458,19.4827064 L28.1236452,20.5222905 L37.2451572,34.9087928 L13.3682582,34.9087928 L22.4897701,20.5222905 Z" id="lab" fill="#000000" sketch:type="MSShapeGroup"></path>
    </g>
</svg>