<?xml version="1.0" encoding="UTF-8" standalone="no"?>
<svg width="36px" height="53px" viewBox="0 0 36 53" version="1.1" xmlns="http://www.w3.org/2000/svg" xmlns:xlink="http://www.w3.org/1999/xlink" xmlns:sketch="http://www.bohemiancoding.com/sketch/ns">
    <!-- Generator: Sketch 3.0.4 (8053) - http://www.bohemiancoding.com/sketch -->
    <title>map-marker</title>
    <desc>Created with Sketch.</desc>
    <defs></defs>
    <g id="Page-1" stroke="none" stroke-width="1" fill="none" fill-rule="evenodd" sketch:type="MSPage">
        <path d="M35.0055597,17.2988621 C35.0055597,7.80846541 27.3260514,0.128957167 17.8356548,0.128957167 C8.34525812,0.128957167 0.665749868,7.80846541 0.665749868,17.2988621 C0.665749868,19.3444953 0.900494661,21.4571984 1.77240389,23.3016218 L14.0126681,49.257689 C14.6833675,50.7332277 16.2259762,51.6386719 17.8356548,51.6386719 C19.4453334,51.6386719 20.987942,50.7332277 21.6921764,49.257689 L33.8989056,23.3016218 C34.7708149,21.4571984 35.0055597,19.3444953 35.0055597,17.2988621 Z M26.4206072,17.2988621 C26.4206072,22.0272929 22.5640856,25.8838145 17.8356548,25.8838145 C13.1072239,25.8838145 9.25070232,22.0272929 9.25070232,17.2988621 C9.25070232,12.5704312 13.1072239,8.71390962 17.8356548,8.71390962 C22.5640856,8.71390962 26.4206072,12.5704312 26.4206072,17.2988621 Z" id="map-marker" fill="#000000" sketch:type="MSShapeGroup"></path>
    </g>
</svg>