<?xml version="1.0" encoding="UTF-8" standalone="no"?>
<svg width="53px" height="58px" viewBox="0 0 53 58" version="1.1" xmlns="http://www.w3.org/2000/svg" xmlns:xlink="http://www.w3.org/1999/xlink" xmlns:sketch="http://www.bohemiancoding.com/sketch/ns">
    <!-- Generator: Sketch 3.0.4 (8053) - http://www.bohemiancoding.com/sketch -->
    <title>music</title>
    <desc>Created with Sketch.</desc>
    <defs></defs>
    <g id="Page-1" stroke="none" stroke-width="1" fill="none" fill-rule="evenodd" sketch:type="MSPage">
        <path d="M51.9153269,4.00792714 C51.9153269,2.23057371 50.4733232,0.788569976 48.6959697,0.788569976 C48.36062,0.788569976 48.0588053,0.822104946 47.7569906,0.922709858 L19.8558951,9.50766231 C18.5144963,9.94361693 17.5755171,11.1844108 17.5755171,12.5928796 L17.5755171,45.0211961 C15.5634189,44.1157519 13.3501108,43.7133322 11.1368028,43.7133322 C7.48149096,43.7133322 0.405612186,45.4236157 0.405612186,50.1520466 C0.405612186,54.8804774 7.48149096,56.5907609 11.1368028,56.5907609 C14.7921145,56.5907609 21.8679933,54.8804774 21.8679933,50.1520466 L21.8679933,26.3757525 L47.6228507,18.4279645 L47.6228507,36.4362436 C45.6107524,35.5307994 43.3974444,35.1283798 41.1841363,35.1283798 C37.5288245,35.1283798 30.4529458,36.8386633 30.4529458,41.5670941 C30.4529458,46.295525 37.5288245,48.0058085 41.1841363,48.0058085 C44.8394481,48.0058085 51.9153269,46.295525 51.9153269,41.5670941 L51.9153269,4.00792714 Z" id="music" fill="#000000" sketch:type="MSShapeGroup"></path>
    </g>
</svg>