<?xml version="1.0" encoding="UTF-8" standalone="no"?>
<svg width="54px" height="53px" viewBox="0 0 54 53" version="1.1" xmlns="http://www.w3.org/2000/svg" xmlns:xlink="http://www.w3.org/1999/xlink" xmlns:sketch="http://www.bohemiancoding.com/sketch/ns">
    <!-- Generator: Sketch 3.0.4 (8053) - http://www.bohemiancoding.com/sketch -->
    <title>pause</title>
    <desc>Created with Sketch.</desc>
    <defs></defs>
    <g id="Page-1" stroke="none" stroke-width="1" fill="none" fill-rule="evenodd" sketch:type="MSPage">
        <path d="M52.08932,2.44663253 C52.08932,1.27290856 51.1168058,0.300394416 49.9430819,0.300394416 L32.773177,0.300394416 C31.599453,0.300394416 30.6269389,1.27290856 30.6269389,2.44663253 L30.6269389,49.663871 C30.6269389,50.837595 31.599453,51.8101091 32.773177,51.8101091 L49.9430819,51.8101091 C51.1168058,51.8101091 52.08932,50.837595 52.08932,49.663871 L52.08932,2.44663253 Z M22.0419864,2.44663253 C22.0419864,1.27290856 21.0694723,0.300394416 19.8957483,0.300394416 L2.72584338,0.300394416 C1.55211942,0.300394416 0.579605271,1.27290856 0.579605271,2.44663253 L0.579605271,49.663871 C0.579605271,50.837595 1.55211942,51.8101091 2.72584338,51.8101091 L19.8957483,51.8101091 C21.0694723,51.8101091 22.0419864,50.837595 22.0419864,49.663871 L22.0419864,2.44663253 Z" id="pause" fill="#262626" sketch:type="MSShapeGroup"></path>
    </g>
</svg>