<?xml version="1.0" encoding="UTF-8" standalone="no"?>
<svg width="58px" height="50px" viewBox="0 0 58 50" version="1.1" xmlns="http://www.w3.org/2000/svg" xmlns:xlink="http://www.w3.org/1999/xlink" xmlns:sketch="http://www.bohemiancoding.com/sketch/ns">
    <!-- Generator: Sketch 3.0.4 (8053) - http://www.bohemiancoding.com/sketch -->
    <title>quote--close</title>
    <desc>Created with Sketch.</desc>
    <defs></defs>
    <g id="Page-1" stroke="none" stroke-width="1" fill="none" fill-rule="evenodd" sketch:type="MSPage">
        <path d="M26.1604695,7.35483158 C26.1604695,3.80012471 23.2764621,0.916117246 19.7217552,0.916117246 L6.84432652,0.916117246 C3.28961965,0.916117246 0.405612186,3.80012471 0.405612186,7.35483158 L0.405612186,20.2322603 C0.405612186,23.7869671 3.28961965,26.6709746 6.84432652,26.6709746 L14.3561599,26.6709746 C16.1335134,26.6709746 17.5755171,28.1129783 17.5755171,29.8903318 L17.5755171,30.9634508 C17.5755171,35.6918817 13.7189955,39.5484033 8.99056464,39.5484033 L6.84432652,39.5484033 C5.67060256,39.5484033 4.69808841,40.5209174 4.69808841,41.6946414 L4.69808841,45.9871176 C4.69808841,47.1608416 5.67060256,48.1333557 6.84432652,48.1333557 L8.99056464,48.1333557 C18.4474263,48.1333557 26.1604695,40.4203125 26.1604695,30.9634508 L26.1604695,7.35483158 Z M56.2078031,7.35483158 C56.2078031,3.80012471 53.3237957,0.916117246 49.7690888,0.916117246 L36.8916601,0.916117246 C33.3369532,0.916117246 30.4529458,3.80012471 30.4529458,7.35483158 L30.4529458,20.2322603 C30.4529458,23.7869671 33.3369532,26.6709746 36.8916601,26.6709746 L44.4034935,26.6709746 C46.1808469,26.6709746 47.6228507,28.1129783 47.6228507,29.8903318 L47.6228507,30.9634508 C47.6228507,35.6918817 43.7663291,39.5484033 39.0378982,39.5484033 L36.8916601,39.5484033 C35.7179361,39.5484033 34.745422,40.5209174 34.745422,41.6946414 L34.745422,45.9871176 C34.745422,47.1608416 35.7179361,48.1333557 36.8916601,48.1333557 L39.0378982,48.1333557 C48.4947599,48.1333557 56.2078031,40.4203125 56.2078031,30.9634508 L56.2078031,7.35483158 Z" id="quote--close" fill="#000000" sketch:type="MSShapeGroup"></path>
    </g>
</svg>