<?xml version="1.0" encoding="UTF-8" standalone="no"?>
<svg width="49px" height="49px" viewBox="0 0 49 49" version="1.1" xmlns="http://www.w3.org/2000/svg" xmlns:xlink="http://www.w3.org/1999/xlink" xmlns:sketch="http://www.bohemiancoding.com/sketch/ns">
    <!-- Generator: Sketch 3.0.4 (8053) - http://www.bohemiancoding.com/sketch -->
    <title>rss</title>
    <desc>Created with Sketch.</desc>
    <defs></defs>
    <g id="Page-1" stroke="none" stroke-width="1" fill="none" fill-rule="evenodd" sketch:type="MSPage">
        <path d="M13.5431785,41.2064658 C13.5431785,37.651759 10.6591711,34.7677515 7.10446421,34.7677515 C3.54975733,34.7677515 0.665749868,37.651759 0.665749868,41.2064658 C0.665749868,44.7611727 3.54975733,47.6451802 7.10446421,47.6451802 C10.6591711,47.6451802 13.5431785,44.7611727 13.5431785,41.2064658 Z M30.7130834,45.3312672 C30.1429889,38.1883185 27.0242367,31.4477894 21.9269212,26.3840089 C16.8631406,21.2866933 10.1226116,18.1679411 2.97966283,17.5978466 L2.81198798,17.5978466 C2.27542845,17.5978466 1.73886892,17.7990564 1.36998425,18.1679411 C0.900494661,18.5703607 0.665749868,19.1404552 0.665749868,19.7440847 L0.665749868,24.2713057 C0.665749868,25.3779597 1.50412413,26.283404 2.61077816,26.3840089 C12.8389442,27.356523 20.954407,35.4719859 21.9269212,45.7001519 C22.0275261,46.8068059 22.9329703,47.6451802 24.0396243,47.6451802 L28.5668453,47.6451802 C29.1704748,47.6451802 29.7405693,47.4104354 30.1429889,46.9409458 C30.5454086,46.5049912 30.7466184,45.9348967 30.7130834,45.3312672 Z M47.8829883,45.3983371 C47.2793589,33.6610975 42.3497182,22.6280922 33.9995106,14.3114195 C25.6828379,5.96121182 14.6498326,1.03157116 2.91259289,0.427941686 L2.81198798,0.427941686 C2.27542845,0.427941686 1.73886892,0.629151509 1.33644928,1.03157116 C0.900494661,1.4339908 0.665749868,1.97055033 0.665749868,2.5741798 L0.665749868,7.36968058 C0.665749868,8.47633461 1.5376591,9.41531378 2.6778481,9.48238372 C22.161666,10.6225727 37.6883573,26.1492641 38.7950113,45.6330819 C38.8620813,46.7732709 39.8010605,47.6451802 40.9412495,47.6451802 L45.7367502,47.6451802 C46.3403797,47.6451802 46.8769392,47.4104354 47.2793589,46.9744808 C47.7153135,46.5385261 47.9165233,45.9684316 47.8829883,45.3983371 Z" id="rss" fill="#262626" sketch:type="MSShapeGroup"></path>
    </g>
</svg>