<?xml version="1.0" encoding="UTF-8" standalone="no"?>
<svg width="58px" height="55px" viewBox="0 0 58 55" version="1.1" xmlns="http://www.w3.org/2000/svg" xmlns:xlink="http://www.w3.org/1999/xlink" xmlns:sketch="http://www.bohemiancoding.com/sketch/ns">
    <!-- Generator: Sketch 3.0.4 (8053) - http://www.bohemiancoding.com/sketch -->
    <title>star--outline</title>
    <desc>Created with Sketch.</desc>
    <defs></defs>
    <g id="Page-1" stroke="none" stroke-width="1" fill="none" fill-rule="evenodd" sketch:type="MSPage">
        <path d="M56.7120286,21.3511629 C56.7120286,20.3451137 55.6389095,19.9426941 54.8340702,19.8085542 L37.999515,17.3605014 L30.4541467,2.10208978 C30.1523319,1.46492534 29.5822374,0.727155989 28.8109331,0.727155989 C28.0396288,0.727155989 27.4695343,1.46492534 27.1677196,2.10208978 L19.6223512,17.3605014 L2.787796,19.8085542 C1.94942173,19.9426941 0.909837648,20.3451137 0.909837648,21.3511629 C0.909837648,21.9547923 1.34579226,22.5248868 1.74821191,22.9608414 L13.9549412,34.832221 L11.0709337,51.5997063 C11.0373987,51.8344511 11.0038638,52.0356609 11.0038638,52.2704057 C11.0038638,53.1423149 11.4398184,53.9471542 12.4123325,53.9471542 C12.8818221,53.9471542 13.3177767,53.7794793 13.7537314,53.5447345 L28.8109331,45.6304815 L43.8681349,53.5447345 C44.2705545,53.7794793 44.7400441,53.9471542 45.2095337,53.9471542 C46.1820478,53.9471542 46.5844675,53.1758499 46.5844675,52.2704057 C46.5844675,52.0356609 46.5844675,51.8344511 46.5509325,51.5997063 L43.6669251,34.832221 L55.8401193,22.9608414 C56.276074,22.5248868 56.7120286,21.9547923 56.7120286,21.3511629 Z M39.0390991,33.3231473 L41.453617,47.4413699 L28.8109331,40.7679108 L16.1347143,47.4413699 L18.5827671,33.3231473 L8.32106613,23.3632611 L22.4728237,21.2840929 L28.8109331,8.47373418 L35.1490425,21.2840929 L49.3008001,23.3632611 L39.0390991,33.3231473 Z" id="star--outline" fill="#262626" sketch:type="MSShapeGroup"></path>
    </g>
</svg>