<?xml version="1.0" encoding="UTF-8" standalone="no"?>
<svg width="58px" height="56px" viewBox="0 0 58 56" version="1.1" xmlns="http://www.w3.org/2000/svg" xmlns:xlink="http://www.w3.org/1999/xlink" xmlns:sketch="http://www.bohemiancoding.com/sketch/ns">
    <!-- Generator: Sketch 3.0.4 (8053) - http://www.bohemiancoding.com/sketch -->
    <title>star</title>
    <desc>Created with Sketch.</desc>
    <defs></defs>
    <g id="Page-1" stroke="none" stroke-width="1" fill="none" fill-rule="evenodd" sketch:type="MSPage">
        <path d="M56.7120286,21.4854572 C56.7120286,20.479408 55.6389095,20.0769884 54.8340702,19.9428485 L37.999515,17.4947957 L30.4541467,2.23638408 C30.1523319,1.59921964 29.5822374,0.861450292 28.8109331,0.861450292 C28.0396288,0.861450292 27.4695343,1.59921964 27.1677196,2.23638408 L19.6223512,17.4947957 L2.787796,19.9428485 C1.94942173,20.0769884 0.909837648,20.479408 0.909837648,21.4854572 C0.909837648,22.0890866 1.34579226,22.6591811 1.74821191,23.0951357 L13.9549412,34.9665153 L11.0709337,51.7340006 C11.0373987,51.9687454 11.0038638,52.1699552 11.0038638,52.4047 C11.0038638,53.2766092 11.4398184,54.0814485 12.4123325,54.0814485 C12.8818221,54.0814485 13.3177767,53.9137736 13.7537314,53.6790288 L28.8109331,45.7647758 L43.8681349,53.6790288 C44.2705545,53.9137736 44.7400441,54.0814485 45.2095337,54.0814485 C46.1820478,54.0814485 46.5844675,53.2766092 46.5844675,52.4047 C46.5844675,52.1699552 46.5844675,51.9687454 46.5509325,51.7340006 L43.6669251,34.9665153 L55.8401193,23.0951357 C56.276074,22.6591811 56.7120286,22.0890866 56.7120286,21.4854572 L56.7120286,21.4854572 Z" id="star" fill="#262626" sketch:type="MSShapeGroup"></path>
    </g>
</svg>