<svg width="16" height="13" viewBox="0 0 16 13" xmlns="http://www.w3.org/2000/svg"><title>twitter</title><desc>Created with Sketch.</desc><path d="M14.464 1.93c-.518.222-1.08.382-1.66.445.598-.357 1.053-.92 1.267-1.59-.552.33-1.177.572-1.83.697-.526-.562-1.276-.91-2.106-.91C8.536.57 7.25 1.865 7.25 3.454c0 .224.027.447.07.66C4.93 3.992 2.796 2.85 1.376 1.1c-.25.43-.393.92-.393 1.456 0 1 .51 1.883 1.286 2.4-.473-.017-.92-.15-1.304-.365v.035c0 1.402.99 2.562 2.313 2.83-.24.063-.5.1-.76.1-.187 0-.365-.02-.544-.046.366 1.142 1.43 1.972 2.697 2-.99.776-2.232 1.23-3.58 1.23-.242 0-.465-.008-.697-.035C1.67 11.527 3.188 12 4.82 12c5.305 0 8.207-4.393 8.207-8.205 0-.125 0-.25-.01-.375.563-.41 1.054-.92 1.447-1.49z" fill="#000"/></svg>