<?xml version="1.0" encoding="UTF-8" standalone="no"?>
<svg width="49px" height="53px" viewBox="0 0 49 53" version="1.1" xmlns="http://www.w3.org/2000/svg" xmlns:xlink="http://www.w3.org/1999/xlink" xmlns:sketch="http://www.bohemiancoding.com/sketch/ns">
    <!-- Generator: Sketch 3.0.4 (8053) - http://www.bohemiancoding.com/sketch -->
    <title>user</title>
    <desc>Created with Sketch.</desc>
    <defs></defs>
    <g id="Page-1" stroke="none" stroke-width="1" fill="none" fill-rule="evenodd" sketch:type="MSPage">
        <path d="M47.8517405,42.9049648 C47.8517405,35.3260615 46.0743871,23.6894267 36.2486407,23.6894267 C35.2090566,23.6894267 30.8159755,28.3507876 24.2431213,28.3507876 C17.670267,28.3507876 13.2771859,23.6894267 12.2376018,23.6894267 C2.41185545,23.6894267 0.634502009,35.3260615 0.634502009,42.9049648 C0.634502009,48.33763 4.25627882,51.5905222 9.58833914,51.5905222 L38.8979034,51.5905222 C44.2299637,51.5905222 47.8517405,48.33763 47.8517405,42.9049648 Z M37.1205499,12.9582361 C37.1205499,5.84882239 31.352535,0.0808074614 24.2431213,0.0808074614 C17.1337075,0.0808074614 11.3656926,5.84882239 11.3656926,12.9582361 C11.3656926,20.0676499 17.1337075,25.8356648 24.2431213,25.8356648 C31.352535,25.8356648 37.1205499,20.0676499 37.1205499,12.9582361 Z" id="user" fill="#262626" sketch:type="MSShapeGroup"></path>
    </g>
</svg>