<?xml version="1.0" encoding="UTF-8" standalone="no"?>
<svg width="58px" height="50px" viewBox="0 0 58 50" version="1.1" xmlns="http://www.w3.org/2000/svg" xmlns:xlink="http://www.w3.org/1999/xlink" xmlns:sketch="http://www.bohemiancoding.com/sketch/ns">
    <!-- Generator: Sketch 3.0.4 (8053) - http://www.bohemiancoding.com/sketch -->
    <title>volume--up</title>
    <desc>Created with Sketch.</desc>
    <defs></defs>
    <g id="Page-1" stroke="none" stroke-width="1" fill="none" fill-rule="evenodd" sketch:type="MSPage">
        <path d="M26.5785504,6.15936203 C26.5785504,4.98563807 25.6060363,4.01312392 24.4323123,4.01312392 C23.8622178,4.01312392 23.3256583,4.24786872 22.9232386,4.65028836 L11.7560934,15.8174335 L2.96993116,15.8174335 C1.7962072,15.8174335 0.823693051,16.7899477 0.823693051,17.9636717 L0.823693051,30.8411003 C0.823693051,32.0148243 1.7962072,32.9873384 2.96993116,32.9873384 L11.7560934,32.9873384 L22.9232386,44.1544836 C23.3256583,44.5569033 23.8622178,44.7916481 24.4323123,44.7916481 C25.6060363,44.7916481 26.5785504,43.8191339 26.5785504,42.64541 L26.5785504,6.15936203 Z M39.4559791,24.402386 C39.4559791,21.0488889 37.4103459,17.7624618 34.2580587,16.5216679 C33.9897789,16.387528 33.6879642,16.3539931 33.4196844,16.3539931 C32.2459604,16.3539931 31.2734463,17.2929722 31.2734463,18.5002312 C31.2734463,21.0488889 35.1635029,20.3446546 35.1635029,24.402386 C35.1635029,28.4601174 31.2734463,27.755883 31.2734463,30.3045408 C31.2734463,31.5117997 32.2459604,32.4507789 33.4196844,32.4507789 C33.6879642,32.4507789 33.9897789,32.4172439 34.2580587,32.2831041 C37.4103459,31.0087752 39.4559791,27.755883 39.4559791,24.402386 Z M48.0409315,24.402386 C48.0409315,17.594787 43.9496651,11.2566776 37.6450907,8.60741488 C37.3768109,8.50680997 37.0749962,8.43974003 36.7731814,8.43974003 C35.5994575,8.43974003 34.6269433,9.41225417 34.6269433,10.5859781 C34.6269433,11.5249573 35.1635029,12.1621218 35.9348072,12.5645414 C36.8402514,13.034031 37.6786256,13.4364506 38.4834649,14.0400801 C41.803427,16.454598 43.7484553,20.3111196 43.7484553,24.402386 C43.7484553,28.4936524 41.803427,32.350174 38.4834649,34.7646919 C37.6786256,35.3683214 36.8402514,35.770741 35.9348072,36.2402306 C35.1635029,36.6426502 34.6269433,37.2798147 34.6269433,38.2187938 C34.6269433,39.3925178 35.5994575,40.365032 36.8067164,40.365032 C37.0749962,40.365032 37.3768109,40.297962 37.6450907,40.1973571 C43.9496651,37.5480944 48.0409315,31.209985 48.0409315,24.402386 Z M56.625884,24.402386 C56.625884,14.10715 50.4889844,4.78442824 41.0321227,0.726696812 C40.7638429,0.6260919 40.4620282,0.559021959 40.1602135,0.559021959 C38.9864895,0.559021959 38.0139753,1.5315361 38.0139753,2.70526007 C38.0139753,3.67777422 38.5169999,4.21433375 39.3218392,4.68382333 C39.7913288,4.9521031 40.3278883,5.11977795 40.8309129,5.38805771 C41.769892,5.89108227 42.7088712,6.46117677 43.5807805,7.09834121 C49.0805156,11.1560726 52.3334078,17.561252 52.3334078,24.402386 C52.3334078,31.24352 49.0805156,37.6486993 43.5807805,41.7064308 C42.7088712,42.3435952 41.769892,42.9136897 40.8309129,43.4167143 C40.3278883,43.684994 39.7913288,43.8526689 39.3218392,44.1209487 C38.5169999,44.5904382 38.0139753,45.1269978 38.0139753,46.0995119 C38.0139753,47.2732359 38.9864895,48.24575 40.1602135,48.24575 C40.4620282,48.24575 40.7638429,48.1786801 41.0321227,48.0780752 C50.4889844,44.0203437 56.625884,34.6976219 56.625884,24.402386 Z" id="volume--up" fill="#262626" sketch:type="MSShapeGroup"></path>
    </g>
</svg>