<?xml version="1.0" encoding="UTF-8" standalone="no"?>
<svg width="40px" height="43px" viewBox="0 0 40 43" version="1.1" xmlns="http://www.w3.org/2000/svg" xmlns:xlink="http://www.w3.org/1999/xlink" xmlns:sketch="http://www.bohemiancoding.com/sketch/ns">
    <!-- Generator: Sketch 3.0.4 (8053) - http://www.bohemiancoding.com/sketch -->
    <title>volume--down</title>
    <desc>Created with Sketch.</desc>
    <defs></defs>
    <g id="Page-1" stroke="none" stroke-width="1" fill="none" fill-rule="evenodd" sketch:type="MSPage">
        <path d="M26.0903748,2.59264086 C26.0903748,1.41891689 25.1178607,0.446402743 23.9441367,0.446402743 C23.3740422,0.446402743 22.8374827,0.681147537 22.4350631,1.08356718 L11.2679179,12.2507124 L2.4817556,12.2507124 C1.30803164,12.2507124 0.335517491,13.2232265 0.335517491,14.3969505 L0.335517491,27.2743792 C0.335517491,28.4481031 1.30803164,29.4206173 2.4817556,29.4206173 L11.2679179,29.4206173 L22.4350631,40.5877624 C22.8374827,40.9901821 23.3740422,41.2249269 23.9441367,41.2249269 C25.1178607,41.2249269 26.0903748,40.2524127 26.0903748,39.0786888 L26.0903748,2.59264086 Z M38.9678035,20.8356648 C38.9678035,17.4821678 36.9221703,14.1957407 33.7698831,12.9549467 C33.5016033,12.8208069 33.1997886,12.7872719 32.9315088,12.7872719 C31.7577849,12.7872719 30.7852707,13.7262511 30.7852707,14.93351 C30.7852707,17.4821678 34.6753273,16.7779334 34.6753273,20.8356648 C34.6753273,24.8933962 30.7852707,24.1891619 30.7852707,26.7378196 C30.7852707,27.9450786 31.7577849,28.8840577 32.9315088,28.8840577 C33.1997886,28.8840577 33.5016033,28.8505228 33.7698831,28.7163829 C36.9221703,27.442054 38.9678035,24.1891619 38.9678035,20.8356648 L38.9678035,20.8356648 Z" id="volume--down" fill="#262626" sketch:type="MSShapeGroup"></path>
    </g>
</svg>