<?xml version="1.0" encoding="UTF-8" standalone="no"?>
<svg width="62px" height="45px" viewBox="0 0 62 45" version="1.1" xmlns="http://www.w3.org/2000/svg" xmlns:xlink="http://www.w3.org/1999/xlink" xmlns:sketch="http://www.bohemiancoding.com/sketch/ns">
    <!-- Generator: Sketch 3.0.4 (8053) - http://www.bohemiancoding.com/sketch -->
    <title>youtube</title>
    <desc>Created with Sketch.</desc>
    <defs></defs>
    <g id="Page-1" stroke="none" stroke-width="1" fill="none" fill-rule="evenodd" sketch:type="MSPage">
        <path d="M60.9732569,22.182799 C60.9732569,17.3872983 60.9732569,12.2899827 59.9336729,7.62862184 C59.1959035,4.34219473 56.5801758,1.92767685 53.4278886,1.55879217 C45.9831251,0.720417911 38.4377568,0.720417911 30.9259234,0.720417911 C23.41409,0.720417911 15.8687216,0.720417911 8.42395815,1.55879217 C5.27167093,1.92767685 2.6894782,4.34219473 1.95170885,7.62862184 C0.878589789,12.2899827 0.878589789,17.3872983 0.878589789,22.182799 C0.878589789,26.9782998 0.878589789,32.0756153 1.91817388,36.7369762 C2.65594323,40.0234034 5.27167093,42.4379212 8.42395815,42.8068059 C15.8687216,43.6451802 23.41409,43.6451802 30.9259234,43.6451802 C38.4377568,43.6451802 45.9831251,43.6451802 53.4278886,42.8068059 C56.5801758,42.4379212 59.1959035,40.0234034 59.9001379,36.7369762 C60.9732569,32.0756153 60.9732569,26.9782998 60.9732569,22.182799 Z M43.803352,22.182799 C43.803352,22.9205684 43.4344674,23.6248028 42.7973029,23.9936874 L25.627398,34.724878 C25.2920483,34.9596228 24.8896287,35.0602277 24.487209,35.0602277 C24.1183244,35.0602277 23.7829746,34.9596228 23.4476249,34.791948 C22.7769255,34.4230633 22.3409709,33.6852939 22.3409709,32.9139896 L22.3409709,11.4516085 C22.3409709,10.6803042 22.7769255,9.9425348 23.4476249,9.57365013 C24.1183244,9.20476545 24.9566986,9.20476545 25.627398,9.64072007 L42.7973029,20.3719106 C43.4344674,20.7407953 43.803352,21.4450297 43.803352,22.182799 Z" id="youtube" fill="#262626" sketch:type="MSShapeGroup"></path>
    </g>
</svg>