<svg width="100" height="146" viewBox="0 0 100 146" xmlns="http://www.w3.org/2000/svg" xmlns:xlink="http://www.w3.org/1999/xlink">
    <defs>
        <path d="M49.763 121.347L.11 92.917V50.224l37.215 21.25V14.517l12.34 7.18.098 99.65zM12.45 71.474v14.312l24.973 14.312v-14.45L12.45 71.474z" id="a"/>
        <path d="M49.957 121.347l49.555-28.333v-42.79L87.074 57.21 87.172.253 49.86 21.6l.097 99.747zm12.34-92.558v71.197l24.81-14.138V71.44L74.695 78.42V21.695L62.297 28.79z" id="b"/>
    </defs>
    
    <g fill="none">
        <g>
            <use fill="#206396" xlink:href="#a"/>
            <use xlink:href="#a"/>
        </g>
        <g>
            <use fill="#206396" xlink:href="#b"/><use xlink:href="#b"/>
        </g>
        
        <path d="M7.25 143.668h-.03c-.145.248-.326.463-.543.644-.217.18-.452.33-.705.45-.254.118-.52.206-.8.263-.278.056-.55.085-.82.085-.548 0-1.054-.093-1.52-.28-.464-.185-.862-.446-1.193-.782-.33-.336-.59-.734-.776-1.193-.186-.46-.28-.964-.28-1.512 0-.547.094-1.05.28-1.51.186-.46.445-.86.775-1.194.33-.337.728-.598 1.193-.784.465-.186.97-.28 1.52-.28.268 0 .54.03.82.086.28.057.545.145.8.264.252.118.487.268.704.45.217.18.398.394.542.642h.03v-5.812h.93v11.718h-.93v-1.256zm.093-2.325c0-.403-.077-.782-.232-1.14-.154-.355-.366-.665-.635-.93-.268-.262-.583-.472-.945-.627-.362-.155-.754-.232-1.178-.232-.434 0-.827.077-1.178.232-.35.155-.65.365-.9.628-.247.264-.436.574-.565.93-.13.357-.195.736-.195 1.14 0 .402.065.782.194 1.14.128.355.317.665.565.93.248.262.548.47.9.626.35.155.743.233 1.177.233.424 0 .816-.078 1.178-.233.362-.155.677-.364.945-.627.27-.264.48-.574.636-.93.156-.357.233-.737.233-1.14zm2.542-.51h3.83v.836h-3.83v-.838zm6-6.883h3.16c.414 0 .833.033 1.256.1.425.068.805.207 1.14.42.336.21.61.505.822.883.212.377.318.875.318 1.495 0 .558-.165 1.044-.496 1.457-.33.414-.822.688-1.473.822v.03c.363.032.694.117.993.257.3.14.558.325.775.558.217.232.385.51.504.83.12.32.178.67.178 1.053 0 .63-.12 1.144-.364 1.542-.243.398-.548.71-.914.938-.367.227-.765.382-1.194.465-.43.083-.83.124-1.2.124h-3.504V133.95zm1.022 4.743h2.123c.527 0 .956-.065 1.287-.194.33-.13.59-.288.775-.474.186-.186.31-.385.372-.596.062-.212.093-.406.093-.582 0-.382-.065-.7-.194-.953-.13-.253-.302-.455-.52-.604-.216-.15-.47-.255-.76-.317-.288-.062-.593-.093-.913-.093h-2.263v3.813zm0 5.3h2.34c.6 0 1.083-.07 1.45-.216.366-.145.648-.326.844-.543.198-.217.33-.447.397-.69.067-.242.1-.462.1-.658 0-.403-.077-.75-.232-1.04-.155-.288-.357-.523-.605-.704-.248-.18-.53-.312-.844-.395-.316-.083-.633-.124-.954-.124h-2.495v4.37zm8.633-10.787h.93v11.718h-.93v-11.718zm3.162 8.137c0-.547.093-1.05.28-1.51.185-.46.444-.86.774-1.194.33-.337.73-.598 1.194-.784.465-.186.97-.28 1.52-.28.547 0 1.05.094 1.51.28.46.186.858.447 1.194.783.335.334.596.732.782 1.192.186.46.28.964.28 1.51 0 .55-.094 1.053-.28 1.513-.186.46-.447.857-.782 1.193-.336.336-.734.597-1.194.783-.46.187-.963.28-1.51.28-.55 0-1.055-.093-1.52-.28-.465-.185-.863-.446-1.194-.782-.33-.336-.59-.734-.775-1.193-.185-.46-.278-.964-.278-1.512zm.93 0c0 .403.065.783.194 1.14.13.356.318.666.566.93.248.263.548.472.9.627.35.155.743.233 1.177.233.433 0 .826-.078 1.177-.233.35-.155.65-.364.9-.627.247-.264.435-.574.565-.93.13-.357.193-.737.193-1.14 0-.403-.064-.782-.193-1.14-.13-.355-.318-.665-.566-.93-.248-.262-.548-.472-.9-.627-.35-.155-.743-.232-1.177-.232-.435 0-.828.077-1.18.232-.35.155-.65.365-.898.628-.248.264-.437.574-.566.93-.13.357-.194.736-.194 1.14zm8.68-8.137h.93v7.812l3.534-3.24h1.364l-3.69 3.27 4.124 3.876h-1.41l-3.922-3.782v3.782h-.93v-11.718zm12.044 9.687c.27.465.617.812 1.046 1.04.43.226.917.34 1.465.34.34 0 .66-.052.96-.155.3-.103.56-.248.784-.434.223-.186.398-.41.528-.674.13-.264.193-.56.193-.892 0-.382-.08-.697-.24-.945-.16-.248-.373-.452-.642-.612-.27-.16-.57-.296-.907-.41-.335-.114-.68-.227-1.037-.34-.357-.115-.703-.244-1.04-.39-.335-.143-.637-.332-.906-.564-.268-.233-.483-.525-.643-.876-.16-.35-.24-.785-.24-1.302 0-.486.095-.917.287-1.294.192-.378.45-.693.776-.946.325-.253.7-.444 1.123-.573.423-.13.867-.194 1.332-.194.6 0 1.155.107 1.667.32.51.21.952.564 1.324 1.06l-.884.636c-.258-.362-.56-.633-.906-.814-.347-.18-.757-.27-1.233-.27-.33 0-.644.043-.944.13-.3.088-.56.218-.783.388-.222.17-.4.385-.535.643-.134.26-.2.564-.2.915 0 .548.138.97.417 1.263.28.296.628.528 1.047.7.418.17.873.32 1.364.448.49.13.945.302 1.364.52.418.216.767.52 1.046.906.28.388.418.922.418 1.604 0 .496-.093.936-.28 1.318-.185.382-.435.705-.75.97-.316.262-.68.46-1.093.595-.412.136-.84.203-1.286.203-.723 0-1.39-.127-2-.38-.61-.253-1.13-.68-1.565-1.28l.976-.65zM61.92 138.6h-2.047v4.665c0 .32.088.57.263.744.176.175.42.263.73.263.175 0 .353-.023.534-.07.18-.046.354-.106.52-.178l.076.837c-.175.062-.377.12-.604.17-.227.052-.43.078-.605.078-.33 0-.614-.05-.852-.147-.238-.1-.43-.23-.574-.396-.143-.165-.25-.36-.316-.58-.068-.223-.1-.463-.1-.722V138.6h-1.55v-.837h1.55V135.7h.93v2.063h2.045v.837zm7.718 4.31c0 .133.005.296.015.487.01.19.018.385.024.58.005.198.013.38.023.552.01.17.015.3.015.394h-.93c-.01-.27-.018-.527-.023-.775-.005-.25-.018-.41-.04-.482h-.045c-.186.393-.496.73-.93 1.016-.434.284-.94.426-1.52.426-.557 0-1.014-.088-1.37-.264-.357-.175-.636-.405-.838-.69-.202-.284-.34-.612-.412-.984-.072-.372-.108-.754-.108-1.147v-4.262h.93v4.216c0 .288.026.57.077.844.052.273.142.52.272.736.128.217.31.39.54.52.234.128.536.193.908.193.34 0 .664-.06.97-.178.303-.12.567-.3.79-.543.22-.243.397-.548.526-.914.13-.367.194-.8.194-1.295v-3.58h.93v5.146zm8.82.758h-.032c-.144.248-.325.463-.542.644-.217.18-.452.33-.705.45-.255.118-.52.206-.8.263-.28.056-.552.085-.82.085-.55 0-1.055-.093-1.52-.28-.465-.185-.863-.446-1.194-.782-.33-.336-.59-.734-.775-1.193-.185-.46-.278-.964-.278-1.512 0-.547.093-1.05.28-1.51.185-.46.444-.86.774-1.194.33-.337.73-.598 1.194-.784.465-.186.97-.28 1.52-.28.268 0 .54.03.82.086.28.057.545.145.8.264.252.118.487.268.704.45.217.18.398.394.542.642h.03v-5.812h.93v11.718h-.93v-1.256zm.092-2.325c0-.403-.077-.782-.232-1.14-.155-.355-.367-.665-.636-.93-.268-.262-.583-.472-.945-.627-.362-.155-.754-.232-1.178-.232-.435 0-.828.077-1.18.232-.35.155-.65.365-.898.628-.248.264-.437.574-.566.93-.13.357-.194.736-.194 1.14 0 .402.065.782.194 1.14.13.355.318.665.566.93.248.262.548.47.9.626.35.155.743.233 1.177.233.423 0 .815-.078 1.177-.233.362-.155.677-.364.945-.627.27-.264.48-.574.636-.93.155-.357.232-.737.232-1.14zm3.286-3.58h.93v7.16h-.93v-7.16zm-.232-2.837c0-.196.067-.36.2-.496.136-.134.3-.2.497-.2.198 0 .363.066.497.2.135.135.202.3.202.496 0 .197-.068.362-.203.496-.134.135-.3.202-.496.202-.195 0-.36-.067-.495-.202-.134-.134-.2-.3-.2-.496zm3.394 6.417c0-.547.093-1.05.28-1.51.185-.46.444-.86.774-1.194.33-.337.73-.598 1.194-.784.465-.186.97-.28 1.52-.28.547 0 1.05.094 1.51.28.46.186.858.447 1.194.783.335.334.596.732.782 1.192.186.46.28.964.28 1.51 0 .55-.094 1.053-.28 1.513-.186.46-.447.857-.782 1.193-.336.336-.734.597-1.194.783-.46.187-.963.28-1.51.28-.55 0-1.055-.093-1.52-.28-.465-.185-.863-.446-1.194-.782-.33-.336-.59-.734-.775-1.193-.186-.46-.28-.964-.28-1.512zm.93 0c0 .403.065.783.194 1.14.13.356.318.666.566.93.248.263.548.472.9.627.35.155.743.233 1.177.233.434 0 .827-.078 1.178-.233.35-.155.65-.364.9-.627.247-.264.435-.574.565-.93.13-.357.193-.737.193-1.14 0-.403-.063-.782-.192-1.14-.13-.355-.318-.665-.566-.93-.248-.262-.548-.472-.9-.627-.35-.155-.743-.232-1.177-.232-.434 0-.827.077-1.178.232-.35.155-.65.365-.9.628-.247.264-.436.574-.565.93-.13.357-.194.736-.194 1.14zm8.696 1.752c.196.382.486.674.868.876.382.202.785.303 1.21.303.195 0 .392-.03.588-.093.196-.062.372-.15.527-.264.155-.113.28-.25.38-.41.098-.16.147-.344.147-.55 0-.33-.106-.58-.318-.745-.212-.164-.473-.293-.783-.386-.31-.093-.65-.173-1.023-.24-.372-.068-.713-.17-1.023-.31-.31-.14-.57-.334-.782-.582-.212-.248-.318-.6-.318-1.054 0-.35.072-.656.217-.914.145-.258.333-.473.566-.643.232-.17.493-.296.782-.38.29-.082.584-.123.884-.123.59 0 1.098.108 1.527.325.428.217.762.558 1 1.023l-.838.496c-.175-.33-.395-.58-.658-.75-.264-.17-.607-.256-1.03-.256-.166 0-.34.026-.52.077-.18.053-.344.125-.49.218-.143.093-.265.212-.363.357-.098.145-.147.31-.147.496 0 .32.106.56.318.714.21.155.472.276.782.364.31.088.65.163 1.023.225.372.062.713.163 1.023.302.31.14.57.34.783.605.212.263.318.638.318 1.123 0 .372-.07.695-.21.97-.14.273-.33.503-.573.69-.242.185-.518.324-.828.417-.31.093-.636.14-.977.14-.62 0-1.185-.12-1.697-.357-.51-.237-.907-.604-1.186-1.1l.822-.558z" fill="#4A4A4A"/>
        </g>
    </svg>