<?xml version="1.0" encoding="UTF-8" standalone="no"?>
<svg width="100px" height="146px" viewBox="0 0 100 146" version="1.1" xmlns="http://www.w3.org/2000/svg" xmlns:xlink="http://www.w3.org/1999/xlink" xmlns:sketch="http://www.bohemiancoding.com/sketch/ns">
    <!-- Generator: Sketch 3.0.4 (8053) - http://www.bohemiancoding.com/sketch -->
    <title>Logo</title>
    <desc>Created with Sketch.</desc>
    <defs>
        <path d="M49.762699,121.347464 L0.110912452,92.9174529 L0.110912452,50.2239205 L37.3254609,71.4736559 L37.3254609,14.5166025 L49.6655331,21.6968784 L49.762699,121.347464 Z M12.4509846,71.4736559 L12.4509846,85.7856924 L37.4226268,100.097729 L37.4226268,85.648011 L12.4509846,71.4736559 Z" id="path-1"></path>
        <path d="M49.9570308,121.347464 L99.5116514,93.0144837 L99.5116514,50.2239205 L87.0744133,57.2101349 L87.1715792,0.253081388 L49.8598649,21.5998476 L49.9570308,121.347464 Z M62.297103,28.789078 L62.297103,99.9874321 L87.1076243,85.8493688 L87.1076243,71.4418177 L74.6944879,78.4193145 L74.6944879,21.6962151 L62.297103,28.789078 Z" id="path-2"></path>
    </defs>
    <g id="Page-1" stroke="none" stroke-width="1" fill="none" fill-rule="evenodd" sketch:type="MSPage">
        <g id="Logo" sketch:type="MSLayerGroup">
            <g id="Path-81">
                <use fill="#206396" fill-rule="evenodd" sketch:type="MSShapeGroup" xlink:href="#path-1"></use>
                <use fill="none" xlink:href="#path-1"></use>
            </g>
            <g id="Path-80">
                <use fill="#206396" fill-rule="evenodd" sketch:type="MSShapeGroup" xlink:href="#path-2"></use>
                <use fill="none" xlink:href="#path-2"></use>
            </g>
            <path d="M7.2503649,143.668377 L7.2193649,143.668377 C7.07469751,143.916378 6.89386598,144.130793 6.6768649,144.311627 C6.45986381,144.492461 6.22478283,144.642293 5.9716149,144.761127 C5.71844697,144.879961 5.45236629,144.967794 5.1733649,145.024627 C4.8943635,145.081461 4.62053291,145.109877 4.3518649,145.109877 C3.80419549,145.109877 3.29786722,145.016878 2.8328649,144.830877 C2.36786257,144.644876 1.97003322,144.383962 1.6393649,144.048127 C1.30869658,143.712292 1.05036583,143.314463 0.864364898,142.854627 C0.678363968,142.394792 0.585364898,141.891047 0.585364898,141.343377 C0.585364898,140.795708 0.678363968,140.291963 0.864364898,139.832127 C1.05036583,139.372292 1.30869658,138.974462 1.6393649,138.638627 C1.97003322,138.302792 2.36786257,138.041878 2.8328649,137.855877 C3.29786722,137.669876 3.80419549,137.576877 4.3518649,137.576877 C4.62053291,137.576877 4.8943635,137.605294 5.1733649,137.662127 C5.45236629,137.718961 5.71844697,137.806793 5.9716149,137.925627 C6.22478283,138.044461 6.45986381,138.194293 6.6768649,138.375127 C6.89386598,138.555961 7.07469751,138.770376 7.2193649,139.018377 L7.2503649,139.018377 L7.2503649,133.205877 L8.1803649,133.205877 L8.1803649,144.923877 L7.2503649,144.923877 L7.2503649,143.668377 Z M7.3433649,141.343377 C7.3433649,140.940375 7.26586567,140.560629 7.1108649,140.204127 C6.95586412,139.847625 6.74403291,139.537628 6.4753649,139.274127 C6.20669689,139.010626 5.89153337,138.801378 5.5298649,138.646377 C5.16819642,138.491376 4.77553368,138.413877 4.3518649,138.413877 C3.91786273,138.413877 3.52519999,138.491376 3.1738649,138.646377 C2.82252981,138.801378 2.52286614,139.010626 2.2748649,139.274127 C2.02686366,139.537628 1.83828221,139.847625 1.7091149,140.204127 C1.57994759,140.560629 1.5153649,140.940375 1.5153649,141.343377 C1.5153649,141.746379 1.57994759,142.126125 1.7091149,142.482627 C1.83828221,142.839129 2.02686366,143.149126 2.2748649,143.412627 C2.52286614,143.676128 2.82252981,143.885376 3.1738649,144.040377 C3.52519999,144.195378 3.91786273,144.272877 4.3518649,144.272877 C4.77553368,144.272877 5.16819642,144.195378 5.5298649,144.040377 C5.89153337,143.885376 6.20669689,143.676128 6.4753649,143.412627 C6.74403291,143.149126 6.95586412,142.839129 7.1108649,142.482627 C7.26586567,142.126125 7.3433649,141.746379 7.3433649,141.343377 Z M9.8853649,140.831877 L13.7138649,140.831877 L13.7138649,141.668877 L9.8853649,141.668877 L9.8853649,140.831877 Z M15.8838649,133.949877 L19.0458649,133.949877 C19.4592003,133.949877 19.8776961,133.98346 20.3013649,134.050627 C20.7250337,134.117794 21.1047799,134.257293 21.4406149,134.469127 C21.7764499,134.680962 22.0502805,134.975459 22.2621149,135.352627 C22.4739493,135.729796 22.5798649,136.228374 22.5798649,136.848377 C22.5798649,137.40638 22.4145332,137.892042 22.0838649,138.305377 C21.7531966,138.718713 21.2623682,138.992543 20.6113649,139.126877 L20.6113649,139.157877 C20.9730334,139.188877 21.3036967,139.274126 21.6033649,139.413627 C21.9030331,139.553128 22.1613638,139.739126 22.3783649,139.971627 C22.595366,140.204128 22.763281,140.480542 22.8821149,140.800877 C23.0009488,141.121212 23.0603649,141.472542 23.0603649,141.854877 C23.0603649,142.485214 22.9389494,142.999292 22.6961149,143.397127 C22.4532804,143.794962 22.1484501,144.107543 21.7816149,144.334877 C21.4147797,144.562212 21.0169504,144.71721 20.5881149,144.799877 C20.1592794,144.882544 19.7588668,144.923877 19.3868649,144.923877 L15.8838649,144.923877 L15.8838649,133.949877 Z M16.9068649,138.692877 L19.0303649,138.692877 C19.5573675,138.692877 19.9861966,138.628294 20.3168649,138.499127 C20.6475332,138.36996 20.905864,138.212378 21.0918649,138.026377 C21.2778658,137.840376 21.4018646,137.641462 21.4638649,137.429627 C21.5258652,137.217793 21.5568649,137.024045 21.5568649,136.848377 C21.5568649,136.466042 21.4922822,136.148295 21.3631149,135.895127 C21.2339476,135.641959 21.060866,135.440461 20.8438649,135.290627 C20.6268638,135.140793 20.3736997,135.034877 20.0843649,134.972877 C19.7950301,134.910877 19.4901998,134.879877 19.1698649,134.879877 L16.9068649,134.879877 L16.9068649,138.692877 Z M16.9068649,143.993877 L19.2473649,143.993877 C19.8467012,143.993877 20.3297797,143.921545 20.6966149,143.776877 C21.0634501,143.63221 21.3450306,143.451378 21.5413649,143.234377 C21.7376992,143.017376 21.8694479,142.787462 21.9366149,142.544627 C22.0037819,142.301793 22.0373649,142.082211 22.0373649,141.885877 C22.0373649,141.482875 21.9598657,141.136712 21.8048649,140.847377 C21.6498641,140.558042 21.4483661,140.322961 21.2003649,140.142127 C20.9523637,139.961293 20.6707831,139.829544 20.3556149,139.746877 C20.0404467,139.66421 19.7226998,139.622877 19.4023649,139.622877 L16.9068649,139.622877 L16.9068649,143.993877 Z M25.5403649,133.205877 L26.4703649,133.205877 L26.4703649,144.923877 L25.5403649,144.923877 L25.5403649,133.205877 Z M28.7023649,141.343377 C28.7023649,140.795708 28.795364,140.291963 28.9813649,139.832127 C29.1673658,139.372292 29.4256966,138.974462 29.7563649,138.638627 C30.0870332,138.302792 30.4848626,138.041878 30.9498649,137.855877 C31.4148672,137.669876 31.9211955,137.576877 32.4688649,137.576877 C33.0165343,137.576877 33.5202793,137.669876 33.9801149,137.855877 C34.4399505,138.041878 34.8377799,138.302792 35.1736149,138.638627 C35.5094499,138.974462 35.770364,139.372292 35.9563649,139.832127 C36.1423658,140.291963 36.2353649,140.795708 36.2353649,141.343377 C36.2353649,141.891047 36.1423658,142.394792 35.9563649,142.854627 C35.770364,143.314463 35.5094499,143.712292 35.1736149,144.048127 C34.8377799,144.383962 34.4399505,144.644876 33.9801149,144.830877 C33.5202793,145.016878 33.0165343,145.109877 32.4688649,145.109877 C31.9211955,145.109877 31.4148672,145.016878 30.9498649,144.830877 C30.4848626,144.644876 30.0870332,144.383962 29.7563649,144.048127 C29.4256966,143.712292 29.1673658,143.314463 28.9813649,142.854627 C28.795364,142.394792 28.7023649,141.891047 28.7023649,141.343377 Z M29.6323649,141.343377 C29.6323649,141.746379 29.6969476,142.126125 29.8261149,142.482627 C29.9552822,142.839129 30.1438637,143.149126 30.3918649,143.412627 C30.6398661,143.676128 30.9395298,143.885376 31.2908649,144.040377 C31.6422,144.195378 32.0348627,144.272877 32.4688649,144.272877 C32.9028671,144.272877 33.2955298,144.195378 33.6468649,144.040377 C33.9982,143.885376 34.2978637,143.676128 34.5458649,143.412627 C34.7938661,143.149126 34.9824476,142.839129 35.1116149,142.482627 C35.2407822,142.126125 35.3053649,141.746379 35.3053649,141.343377 C35.3053649,140.940375 35.2407822,140.560629 35.1116149,140.204127 C34.9824476,139.847625 34.7938661,139.537628 34.5458649,139.274127 C34.2978637,139.010626 33.9982,138.801378 33.6468649,138.646377 C33.2955298,138.491376 32.9028671,138.413877 32.4688649,138.413877 C32.0348627,138.413877 31.6422,138.491376 31.2908649,138.646377 C30.9395298,138.801378 30.6398661,139.010626 30.3918649,139.274127 C30.1438637,139.537628 29.9552822,139.847625 29.8261149,140.204127 C29.6969476,140.560629 29.6323649,140.940375 29.6323649,141.343377 Z M38.3123649,133.205877 L39.2423649,133.205877 L39.2423649,141.017877 L42.7763649,137.778377 L44.1403649,137.778377 L40.4513649,141.048877 L44.5743649,144.923877 L43.1638649,144.923877 L39.2423649,141.141877 L39.2423649,144.923877 L38.3123649,144.923877 L38.3123649,133.205877 Z M50.3558649,142.893377 C50.6245329,143.358379 50.9732794,143.704543 51.4021149,143.931877 C51.8309504,144.159212 52.3191955,144.272877 52.8668649,144.272877 C53.2078666,144.272877 53.5281967,144.221211 53.8278649,144.117877 C54.1275331,144.014543 54.3884471,143.869878 54.6106149,143.683877 C54.8327827,143.497876 55.0084476,143.273128 55.1376149,143.009627 C55.2667822,142.746126 55.3313649,142.449045 55.3313649,142.118377 C55.3313649,141.736042 55.2512824,141.420878 55.0911149,141.172877 C54.9309474,140.924876 54.7165329,140.720795 54.4478649,140.560627 C54.1791969,140.40046 53.8769499,140.263544 53.5411149,140.149877 C53.2052799,140.03621 52.8591167,139.922544 52.5026149,139.808877 C52.1461131,139.69521 51.7999499,139.566045 51.4641149,139.421377 C51.1282799,139.27671 50.8260329,139.088128 50.5573649,138.855627 C50.2886969,138.623126 50.0742824,138.331212 49.9141149,137.979877 C49.7539474,137.628542 49.6738649,137.194546 49.6738649,136.677877 C49.6738649,136.192208 49.7694473,135.760796 49.9606149,135.383627 C50.1517825,135.006459 50.4101133,134.691295 50.7356149,134.438127 C51.0611165,134.184959 51.4356961,133.993794 51.8593649,133.864627 C52.2830337,133.73546 52.7273626,133.670877 53.1923649,133.670877 C53.7917012,133.670877 54.3471123,133.776793 54.8586149,133.988627 C55.3701175,134.200462 55.811863,134.554375 56.1838649,135.050377 L55.3003649,135.685877 C55.0420303,135.324209 54.7397833,135.052961 54.3936149,134.872127 C54.0474465,134.691293 53.6367006,134.600877 53.1613649,134.600877 C52.8306966,134.600877 52.5155331,134.644793 52.2158649,134.732627 C51.9161967,134.820461 51.6552827,134.949626 51.4331149,135.120127 C51.2109471,135.290628 51.0326989,135.505043 50.8983649,135.763377 C50.7640309,136.021712 50.6968649,136.326542 50.6968649,136.677877 C50.6968649,137.225547 50.8363635,137.646626 51.1153649,137.941127 C51.3943663,138.235629 51.7431128,138.468126 52.1616149,138.638627 C52.580117,138.809128 53.0347791,138.95896 53.5256149,139.088127 C54.0164507,139.217294 54.4711128,139.390376 54.8896149,139.607377 C55.308117,139.824378 55.6568635,140.126625 55.9358649,140.514127 C56.2148663,140.901629 56.3543649,141.436374 56.3543649,142.118377 C56.3543649,142.61438 56.2613658,143.053542 56.0753649,143.435877 C55.889364,143.818212 55.6387831,144.141126 55.3236149,144.404627 C55.0084467,144.668128 54.6442003,144.867043 54.2308649,145.001377 C53.8175295,145.135711 53.3887005,145.202877 52.9443649,145.202877 C52.2210279,145.202877 51.5545346,145.076295 50.9448649,144.823127 C50.3351952,144.569959 49.8133671,144.143713 49.3793649,143.544377 L50.3558649,142.893377 Z M61.9188649,138.599877 L59.8728649,138.599877 L59.8728649,143.265377 C59.8728649,143.585712 59.9606974,143.83371 60.1363649,144.009377 C60.3120324,144.185045 60.5548633,144.272877 60.8648649,144.272877 C61.0405324,144.272877 61.2187807,144.249627 61.3996149,144.203127 C61.5804491,144.156627 61.7535307,144.097211 61.9188649,144.024877 L61.9963649,144.861877 C61.8206974,144.923877 61.6191994,144.98071 61.3918649,145.032377 C61.1645304,145.084044 60.9630324,145.109877 60.7873649,145.109877 C60.4566966,145.109877 60.1725328,145.060794 59.9348649,144.962627 C59.697197,144.86446 59.5060323,144.732711 59.3613649,144.567377 C59.2166975,144.402043 59.1107819,144.208295 59.0436149,143.986127 C58.9764479,143.763959 58.9428649,143.523712 58.9428649,143.265377 L58.9428649,138.599877 L57.3928649,138.599877 L57.3928649,137.762877 L58.9428649,137.762877 L58.9428649,135.701377 L59.8728649,135.701377 L59.8728649,137.762877 L61.9188649,137.762877 L61.9188649,138.599877 Z M69.6378649,142.908877 C69.6378649,143.043211 69.6430315,143.20596 69.6533649,143.397127 C69.6636983,143.588295 69.6714482,143.782043 69.6766149,143.978377 C69.6817816,144.174711 69.6895315,144.358126 69.6998649,144.528627 C69.7101983,144.699128 69.7153649,144.830877 69.7153649,144.923877 L68.7853649,144.923877 C68.7750315,144.655209 68.7672816,144.396878 68.7621149,144.148877 C68.7569482,143.900876 68.7440317,143.740711 68.7233649,143.668377 L68.6768649,143.668377 C68.490864,144.061046 68.1808671,144.399459 67.7468649,144.683627 C67.3128627,144.967795 66.8065345,145.109877 66.2278649,145.109877 C65.6698621,145.109877 65.2126167,145.022045 64.8561149,144.846377 C64.4996131,144.67071 64.2206159,144.440795 64.0191149,144.156627 C63.8176139,143.872459 63.6806986,143.544379 63.6083649,143.172377 C63.5360312,142.800375 63.4998649,142.418046 63.4998649,142.025377 L63.4998649,137.762877 L64.4298649,137.762877 L64.4298649,141.978877 C64.4298649,142.268212 64.455698,142.549792 64.5073649,142.823627 C64.5590318,143.097462 64.6494476,143.342876 64.7786149,143.559877 C64.9077822,143.776878 65.0886137,143.94996 65.3211149,144.079127 C65.5536161,144.208294 65.855863,144.272877 66.2278649,144.272877 C66.5688666,144.272877 66.89178,144.213461 67.1966149,144.094627 C67.5014498,143.975793 67.7649471,143.794962 67.9871149,143.552127 C68.2092827,143.309293 68.3849476,143.004462 68.5141149,142.637627 C68.6432822,142.270792 68.7078649,141.83938 68.7078649,141.343377 L68.7078649,137.762877 L69.6378649,137.762877 L69.6378649,142.908877 Z M78.4573649,143.668377 L78.4263649,143.668377 C78.2816975,143.916378 78.100866,144.130793 77.8838649,144.311627 C77.6668638,144.492461 77.4317828,144.642293 77.1786149,144.761127 C76.925447,144.879961 76.6593663,144.967794 76.3803649,145.024627 C76.1013635,145.081461 75.8275329,145.109877 75.5588649,145.109877 C75.0111955,145.109877 74.5048672,145.016878 74.0398649,144.830877 C73.5748626,144.644876 73.1770332,144.383962 72.8463649,144.048127 C72.5156966,143.712292 72.2573658,143.314463 72.0713649,142.854627 C71.885364,142.394792 71.7923649,141.891047 71.7923649,141.343377 C71.7923649,140.795708 71.885364,140.291963 72.0713649,139.832127 C72.2573658,139.372292 72.5156966,138.974462 72.8463649,138.638627 C73.1770332,138.302792 73.5748626,138.041878 74.0398649,137.855877 C74.5048672,137.669876 75.0111955,137.576877 75.5588649,137.576877 C75.8275329,137.576877 76.1013635,137.605294 76.3803649,137.662127 C76.6593663,137.718961 76.925447,137.806793 77.1786149,137.925627 C77.4317828,138.044461 77.6668638,138.194293 77.8838649,138.375127 C78.100866,138.555961 78.2816975,138.770376 78.4263649,139.018377 L78.4573649,139.018377 L78.4573649,133.205877 L79.3873649,133.205877 L79.3873649,144.923877 L78.4573649,144.923877 L78.4573649,143.668377 Z M78.5503649,141.343377 C78.5503649,140.940375 78.4728657,140.560629 78.3178649,140.204127 C78.1628641,139.847625 77.9510329,139.537628 77.6823649,139.274127 C77.4136969,139.010626 77.0985334,138.801378 76.7368649,138.646377 C76.3751964,138.491376 75.9825337,138.413877 75.5588649,138.413877 C75.1248627,138.413877 74.7322,138.491376 74.3808649,138.646377 C74.0295298,138.801378 73.7298661,139.010626 73.4818649,139.274127 C73.2338637,139.537628 73.0452822,139.847625 72.9161149,140.204127 C72.7869476,140.560629 72.7223649,140.940375 72.7223649,141.343377 C72.7223649,141.746379 72.7869476,142.126125 72.9161149,142.482627 C73.0452822,142.839129 73.2338637,143.149126 73.4818649,143.412627 C73.7298661,143.676128 74.0295298,143.885376 74.3808649,144.040377 C74.7322,144.195378 75.1248627,144.272877 75.5588649,144.272877 C75.9825337,144.272877 76.3751964,144.195378 76.7368649,144.040377 C77.0985334,143.885376 77.4136969,143.676128 77.6823649,143.412627 C77.9510329,143.149126 78.1628641,142.839129 78.3178649,142.482627 C78.4728657,142.126125 78.5503649,141.746379 78.5503649,141.343377 Z M81.8363649,137.762877 L82.7663649,137.762877 L82.7663649,144.923877 L81.8363649,144.923877 L81.8363649,137.762877 Z M81.6038649,134.926377 C81.6038649,134.730043 81.6710309,134.564711 81.8053649,134.430377 C81.9396989,134.296043 82.1050306,134.228877 82.3013649,134.228877 C82.4976992,134.228877 82.6630309,134.296043 82.7973649,134.430377 C82.9316989,134.564711 82.9988649,134.730043 82.9988649,134.926377 C82.9988649,135.122711 82.9316989,135.288043 82.7973649,135.422377 C82.6630309,135.556711 82.4976992,135.623877 82.3013649,135.623877 C82.1050306,135.623877 81.9396989,135.556711 81.8053649,135.422377 C81.6710309,135.288043 81.6038649,135.122711 81.6038649,134.926377 Z M84.9983649,141.343377 C84.9983649,140.795708 85.091364,140.291963 85.2773649,139.832127 C85.4633658,139.372292 85.7216966,138.974462 86.0523649,138.638627 C86.3830332,138.302792 86.7808626,138.041878 87.2458649,137.855877 C87.7108672,137.669876 88.2171955,137.576877 88.7648649,137.576877 C89.3125343,137.576877 89.8162793,137.669876 90.2761149,137.855877 C90.7359505,138.041878 91.1337799,138.302792 91.4696149,138.638627 C91.8054499,138.974462 92.066364,139.372292 92.2523649,139.832127 C92.4383658,140.291963 92.5313649,140.795708 92.5313649,141.343377 C92.5313649,141.891047 92.4383658,142.394792 92.2523649,142.854627 C92.066364,143.314463 91.8054499,143.712292 91.4696149,144.048127 C91.1337799,144.383962 90.7359505,144.644876 90.2761149,144.830877 C89.8162793,145.016878 89.3125343,145.109877 88.7648649,145.109877 C88.2171955,145.109877 87.7108672,145.016878 87.2458649,144.830877 C86.7808626,144.644876 86.3830332,144.383962 86.0523649,144.048127 C85.7216966,143.712292 85.4633658,143.314463 85.2773649,142.854627 C85.091364,142.394792 84.9983649,141.891047 84.9983649,141.343377 Z M85.9283649,141.343377 C85.9283649,141.746379 85.9929476,142.126125 86.1221149,142.482627 C86.2512822,142.839129 86.4398637,143.149126 86.6878649,143.412627 C86.9358661,143.676128 87.2355298,143.885376 87.5868649,144.040377 C87.9382,144.195378 88.3308627,144.272877 88.7648649,144.272877 C89.1988671,144.272877 89.5915298,144.195378 89.9428649,144.040377 C90.2942,143.885376 90.5938637,143.676128 90.8418649,143.412627 C91.0898661,143.149126 91.2784476,142.839129 91.4076149,142.482627 C91.5367822,142.126125 91.6013649,141.746379 91.6013649,141.343377 C91.6013649,140.940375 91.5367822,140.560629 91.4076149,140.204127 C91.2784476,139.847625 91.0898661,139.537628 90.8418649,139.274127 C90.5938637,139.010626 90.2942,138.801378 89.9428649,138.646377 C89.5915298,138.491376 89.1988671,138.413877 88.7648649,138.413877 C88.3308627,138.413877 87.9382,138.491376 87.5868649,138.646377 C87.2355298,138.801378 86.9358661,139.010626 86.6878649,139.274127 C86.4398637,139.537628 86.2512822,139.847625 86.1221149,140.204127 C85.9929476,140.560629 85.9283649,140.940375 85.9283649,141.343377 Z M94.6238649,143.094877 C94.8201992,143.477212 95.1095297,143.769126 95.4918649,143.970627 C95.8742001,144.172128 96.2771961,144.272877 96.7008649,144.272877 C96.8971992,144.272877 97.0935306,144.241877 97.2898649,144.179877 C97.4861992,144.117877 97.6618641,144.030044 97.8168649,143.916377 C97.9718657,143.80271 98.0984477,143.665795 98.1966149,143.505627 C98.2947821,143.34546 98.3438649,143.162045 98.3438649,142.955377 C98.3438649,142.624709 98.2379493,142.376711 98.0261149,142.211377 C97.8142805,142.046043 97.5533664,141.916878 97.2433649,141.823877 C96.9333633,141.730877 96.5923668,141.650794 96.2203649,141.583627 C95.848363,141.51646 95.5073664,141.413128 95.1973649,141.273627 C94.8873633,141.134126 94.6264493,140.940378 94.4146149,140.692377 C94.2027805,140.444376 94.0968649,140.093046 94.0968649,139.638377 C94.0968649,139.287042 94.1691975,138.982212 94.3138649,138.723877 C94.4585323,138.465543 94.6471137,138.251128 94.8796149,138.080627 C95.1121161,137.910126 95.3730301,137.783544 95.6623649,137.700877 C95.9516997,137.61821 96.2461967,137.576877 96.5458649,137.576877 C97.1348678,137.576877 97.6437794,137.685376 98.0726149,137.902377 C98.5014504,138.119378 98.834697,138.460375 99.0723649,138.925377 L98.2353649,139.421377 C98.0596974,139.090709 97.8401162,138.840128 97.5766149,138.669627 C97.3131136,138.499126 96.9695337,138.413877 96.5458649,138.413877 C96.3805307,138.413877 96.2074491,138.43971 96.0266149,138.491377 C95.8457807,138.543044 95.6830323,138.615377 95.5383649,138.708377 C95.3936975,138.801378 95.2722821,138.92021 95.1741149,139.064877 C95.0759477,139.209545 95.0268649,139.374876 95.0268649,139.560877 C95.0268649,139.881212 95.1327805,140.118876 95.3446149,140.273877 C95.5564493,140.428878 95.8173633,140.550293 96.1273649,140.638127 C96.4373664,140.725961 96.778363,140.800877 97.1503649,140.862877 C97.5223668,140.924877 97.8633633,141.025626 98.1733649,141.165127 C98.4833664,141.304628 98.7442805,141.506126 98.9561149,141.769627 C99.1679493,142.033128 99.2738649,142.407708 99.2738649,142.893377 C99.2738649,143.265379 99.2041156,143.588292 99.0646149,143.862127 C98.9251142,144.135962 98.7339494,144.365876 98.4911149,144.551877 C98.2482804,144.737878 97.9718664,144.877377 97.6618649,144.970377 C97.3518633,145.063378 97.0263666,145.109877 96.6853649,145.109877 C96.0653618,145.109877 95.4996175,144.991045 94.9881149,144.753377 C94.4766123,144.515709 94.0813663,144.14888 93.8023649,143.652877 L94.6238649,143.094877 Z" id="d-Blok-Studios" fill="#4A4A4A" sketch:type="MSShapeGroup"></path>
        </g>
    </g>
</svg>